<svg width="43" height="42" viewBox="0 0 43 42" fill="none" xmlns="http://www.w3.org/2000/svg">
<path d="M31.2803 25.5612C31.2803 27.3252 31.7822 28.0287 33.0947 28.0287C36.02 28.0287 37.8827 24.3012 37.8827 18.102C37.8827 8.6268 30.9779 4.0908 22.3574 4.0908C13.4891 4.0908 5.42296 10.038 5.42296 21.2772C5.42296 32.0124 12.479 37.8588 23.315 37.8588C26.9942 37.8588 29.4638 37.4556 33.2417 36.1956L34.0523 39.5703C30.3227 40.782 26.3369 41.1327 23.2646 41.1327C9.05176 41.1327 1.43925 33.3207 1.43925 21.2751C1.43925 9.1287 10.2614 0.863098 22.4078 0.863098C35.0582 0.863098 41.7593 8.4231 41.7593 17.6967C41.7593 25.5591 39.2918 31.5567 31.5302 31.5567C28.0001 31.5567 25.6838 30.1455 25.3814 27.0186C24.4742 30.4962 22.055 31.5567 18.7769 31.5567C14.3921 31.5567 10.7129 28.1778 10.7129 21.3759C10.7129 14.5215 13.9406 10.2879 19.7366 10.2879C22.811 10.2879 24.7262 11.4975 25.5788 13.4127L27.0425 10.7415H31.2761V25.5612H31.2803ZM25.0832 18.9084C25.0832 16.1385 23.0147 14.9772 21.3011 14.9772C19.4363 14.9772 17.372 16.4871 17.372 20.9244C17.372 24.4524 18.9344 26.418 21.3011 26.418C22.9643 26.418 25.0832 25.3596 25.0832 22.4364V18.9084Z" fill="#009AB2"/>
</svg>
