<svg width="50" height="43" viewBox="0 0 50 43" fill="none" xmlns="http://www.w3.org/2000/svg">
<path d="M22.0513 -3.94C7.64073 -3.94 -4.04102 7.4497 -4.04102 21.5C-4.04102 35.5503 7.64073 46.94 22.0513 46.94C36.4619 46.94 48.1436 35.5503 48.1436 21.5C48.1436 7.4497 36.4619 -3.94 22.0513 -3.94ZM15.6641 32.0443H10.3804V15.4659H15.6641V32.0443ZM12.9897 13.4307C11.3208 13.4307 10.2418 12.278 10.2418 10.8523C10.2418 9.39745 11.3534 8.27915 13.0576 8.27915C14.7618 8.27915 15.8054 9.39745 15.8381 10.8523C15.8381 12.278 14.7618 13.4307 12.9897 13.4307ZM34.9616 32.0443H29.6779V22.8568C29.6779 20.7183 28.9114 19.266 27.0007 19.266C25.5411 19.266 24.6741 20.2492 24.2909 21.1952C24.1496 21.5318 24.1142 22.0088 24.1142 22.4832V32.0417H18.8278V20.7527C18.8278 18.6831 18.7599 16.9526 18.6892 15.4633H23.2798L23.5217 17.7661H23.6277C24.3235 16.6849 26.0277 15.0896 28.8788 15.0896C32.355 15.0896 34.9616 17.3607 34.9616 22.242V32.0443Z" fill="#009AB2"/>
</svg>
