<svg width="47" height="43" viewBox="0 0 47 43" fill="none" xmlns="http://www.w3.org/2000/svg">
<path d="M20.6056 0.333328C32.5721 0.333328 42.2723 10.0335 42.2723 22C42.2723 33.9665 32.5721 43.6667 20.6056 43.6667C16.7766 43.6728 13.015 42.6595 9.70728 40.7308L-1.05238 43.6667L1.87695 32.9027C-0.0533489 29.5939 -1.06745 25.8307 -1.06105 22C-1.06105 10.0335 8.63912 0.333328 20.6056 0.333328ZM13.2216 11.8167L12.7883 11.834C12.5077 11.8511 12.2336 11.9248 11.9823 12.0507C11.7472 12.1838 11.5327 12.3501 11.3453 12.5447C11.0853 12.7895 10.938 13.0018 10.7798 13.2077C9.97838 14.2496 9.54689 15.5288 9.55345 16.8433C9.55778 17.905 9.83512 18.9385 10.2684 19.9048C11.1546 21.8592 12.6128 23.9283 14.5368 25.8458C15.0005 26.3073 15.4555 26.771 15.9451 27.2022C18.3358 29.307 21.1847 30.8249 24.2651 31.6352L25.4958 31.8237C25.8966 31.8453 26.2975 31.815 26.7005 31.7955C27.3315 31.7629 27.9476 31.5921 28.5053 31.295C28.789 31.1488 29.0659 30.9898 29.3351 30.8183C29.3351 30.8183 29.4283 30.7577 29.606 30.6233C29.8985 30.4067 30.0783 30.2528 30.321 29.9993C30.5008 29.813 30.6568 29.5942 30.7759 29.345C30.945 28.9918 31.1139 28.318 31.1833 27.7568C31.2353 27.3278 31.2201 27.0938 31.2136 26.9487C31.2049 26.7168 31.0121 26.4763 30.802 26.3745L29.541 25.809C29.541 25.809 27.6559 24.9878 26.5033 24.4635C26.3827 24.4108 26.2534 24.3807 26.122 24.3747C25.9737 24.3594 25.8239 24.3761 25.6827 24.4236C25.5414 24.471 25.4119 24.5482 25.3029 24.6498C25.2921 24.6455 25.1469 24.769 23.5805 26.667C23.4905 26.7878 23.3667 26.8791 23.2247 26.9293C23.0827 26.9794 22.929 26.9862 22.7831 26.9487C22.642 26.9108 22.5037 26.863 22.3693 26.8057C22.1006 26.693 22.0075 26.6497 21.8233 26.5717C20.5798 26.029 19.4284 25.2958 18.4108 24.3985C18.1378 24.1602 17.8843 23.9002 17.6243 23.6488C16.7719 22.8325 16.029 21.909 15.4143 20.9015L15.2864 20.6957C15.1946 20.5574 15.1204 20.4081 15.0655 20.2515C14.9831 19.933 15.1976 19.6773 15.1976 19.6773C15.1976 19.6773 15.7241 19.101 15.969 18.789C16.2073 18.4857 16.4088 18.191 16.5388 17.9808C16.7944 17.5692 16.8746 17.1467 16.7403 16.8195C16.1336 15.3375 15.5053 13.862 14.8596 12.3973C14.7318 12.107 14.3526 11.899 14.0081 11.8578C13.8911 11.8448 13.7741 11.8318 13.6571 11.8232C13.3661 11.8087 13.0746 11.8116 12.7839 11.8318L13.2194 11.8145L13.2216 11.8167Z" fill="#009AB2"/>
</svg>
