<svg width="48" height="43" viewBox="0 0 48 43" fill="none" xmlns="http://www.w3.org/2000/svg">
<path d="M21.5 -0.0378723C16.2562 -0.0379895 11.1834 1.82791 7.18949 5.22592C3.19558 8.62394 0.541175 13.3323 -0.298716 18.5084C-1.13861 23.6846 -0.109168 28.9907 2.60538 33.4772C5.31993 37.9638 9.54243 41.3379 14.5173 42.9959C15.6214 43.1902 16.0344 42.5277 16.0344 41.947C16.0344 41.4236 16.0079 39.6834 16.0079 37.835C10.4583 38.8553 9.02293 36.4813 8.58126 35.2402C8.09133 34.0317 7.31442 32.9608 6.31772 32.1199C5.5448 31.7069 4.44064 30.6845 6.28901 30.658C6.99541 30.7344 7.67297 30.98 8.26422 31.3741C8.85547 31.7681 9.34299 32.2989 9.68543 32.9215C9.98738 33.464 10.3934 33.9417 10.8803 34.327C11.3671 34.7123 11.9253 34.9978 12.5227 35.167C13.12 35.3363 13.745 35.386 14.3616 35.3133C14.9782 35.2406 15.5744 35.0469 16.1161 34.7434C16.2117 33.6202 16.7125 32.57 17.525 31.7886C12.6115 31.2365 7.4771 29.333 7.4771 20.8861C7.44581 18.6909 8.2557 16.5671 9.74064 14.9501C9.06557 13.0426 9.14456 10.9492 9.96147 9.098C9.96147 9.098 11.8098 8.51942 16.0344 11.3615C19.6478 10.3677 23.4626 10.3677 27.076 11.3615C31.2984 8.49071 33.149 9.098 33.149 9.098C33.9661 10.9492 34.0451 13.0426 33.3698 14.9501C34.8592 16.5643 35.6698 18.69 35.6333 20.8861C35.6333 29.3595 30.4703 31.2365 25.5567 31.7886C26.0838 32.3228 26.4897 32.9641 26.7469 33.669C27.0041 34.374 27.1065 35.126 27.0473 35.874C27.0473 38.8288 27.0208 41.2027 27.0208 41.947C27.0208 42.5277 27.4338 43.2167 28.538 42.9959C33.5036 41.3241 37.7136 37.9419 40.4162 33.4532C43.1189 28.9644 44.1384 23.6613 43.2927 18.4905C42.447 13.3196 39.7912 8.61754 35.7994 5.22366C31.8076 1.82978 26.7396 -0.0350234 21.5 -0.0378723Z" fill="#009AB2"/>
</svg>
